<?xml version="1.0" encoding="iso-8859-1"?>
<!-- Uploaded to: SVG Repo, www.svgrepo.com, Generator: SVG Repo Mixer Tools -->
<svg height="800px" width="800px" version="1.1" id="Layer_1" xmlns="http://www.w3.org/2000/svg" xmlns:xlink="http://www.w3.org/1999/xlink" 
	 viewBox="0 0 512 512" xml:space="preserve">
<path style="fill:#51AD77;" d="M189.895,77.707c6.935-17.31,20.551-31.902,39.134-39.606c18.571-7.7,38.529-7.027,55.667,0.303
	l3.88,23.346l-32.324,42.024l-61.758-6.942"/>
<path style="fill:#EF8D43;" d="M308.109,430.278l-84.374-5.25c21.97-51.163,31.322-106.248,28.021-160.759l-17.246-50.541
	l-11.314-33.176l15.44-69.784l37.11-32.338l28.978,53.172c9.197,24.23,16.145,49.082,20.833,74.256
	C339.503,280.51,333.679,357.971,308.109,430.278z"/>
<g>
	<path style="fill:#66CC92;" d="M256.253,103.772c-21.467-0.897-42.528,5.298-59.989,17.234
		c-15.308,10.465-27.866,25.354-35.484,43.772c-16.313,39.418-5.238,83.346,24.445,110.625c-11.278-0.466-22.651-2.894-33.69-7.451
		c-50.445-20.881-74.424-78.705-53.543-129.162c20.881-50.445,78.705-74.424,129.151-53.543
		C238.182,89.816,247.941,96.141,256.253,103.772z"/>
	<path style="fill:#66CC92;" d="M446.409,145.702c-4.569,11.027-10.895,20.786-18.525,29.097
		c1.674-40.28-21.587-79.16-61.005-95.473c-15.739-6.518-32.207-8.659-48.041-6.996h-0.012c-23.811,2.5-46.188,13.61-62.572,31.441
		c0.466-11.266,2.882-22.651,7.451-33.678c20.881-50.457,78.705-74.436,129.162-53.555c11.804,4.891,22.161,11.804,30.832,20.176
		h0.012C452.078,64.103,462.399,107.061,446.409,145.702z"/>
</g>
<path style="fill:#51AD77;" d="M256.253,103.772c-21.467-0.897-42.528,5.298-59.989,17.234c0,0-54.452-33.534-98.271,17.784
	c20.881-50.445,78.705-74.424,129.151-53.543C238.182,89.816,247.941,96.141,256.253,103.772z"/>
<path style="fill:#D87736;" d="M325.558,205.859c-34.419,34.431-76.888,12.892-76.888,12.892l-14.16-5.023l-11.314-33.176
	l15.44-69.784l37.11-32.338l28.978,53.172C313.922,155.832,320.87,180.684,325.558,205.859z"/>
<path style="fill:#51AD77;" d="M423.698,36.714c-79.578-11.397-104.526,34.97-104.861,35.615h-0.012
	c-23.811,2.5-46.188,13.61-62.572,31.441c0.466-11.266,2.882-22.651,7.451-33.678c20.881-50.457,78.705-74.436,129.163-53.555
	C404.67,21.431,415.027,28.343,423.698,36.714z"/>
<g>
	<path style="fill:#66CC92;" d="M275.412,268.502c-40.818-1.316-75.62-32.326-80.475-74.113c-0.777-6.649-0.753-13.203,0-19.566
		c3.959-33.666,28.153-62.082,61.316-71.051c-8.671,18.238-13.897,38.294-14.902,59.271c-0.419,8.491-0.144,17.126,0.873,25.844
		C245.741,219.146,257.676,246.365,275.412,268.502z"/>
	<path style="fill:#66CC92;" d="M359.26,233.747c-3.121-28.2-13.945-55.887-32.877-79.758c-3.086-3.899-6.327-7.606-9.699-11.134
		c-17.281-18.047-38.067-31.154-60.431-39.084c26.132-15.033,57.98-14.591,83.382-0.06c9.017,5.143,17.222,12.067,24.062,20.702
		C389.829,157.387,387.185,203.933,359.26,233.747z"/>
</g>
<g>
	<path style="fill:#51AD77;" d="M256.253,103.772c-8.671,18.238-13.897,38.294-14.902,59.271
		c-28.093-12.725-46.415,11.78-46.415,11.78C198.895,141.158,223.089,112.742,256.253,103.772z"/>
	<path style="fill:#51AD77;" d="M316.684,142.855c-17.281-18.047-38.067-31.154-60.431-39.084
		c26.132-15.033,57.98-14.591,83.382-0.06C307.798,112.204,316.684,142.855,316.684,142.855z"/>
</g>
<path style="fill:#F2D546;" d="M440.482,503.03c-105.597-105.597-276.805-105.597-382.403,0"/>
<path style="fill:#D6BA30;" d="M58.08,503.03h69.365c43.958-43.958,99.288-69.599,156.519-76.961
	C203.711,415.75,119.719,441.391,58.08,503.03z"/>
<path d="M424.449,183.089c1.111,0.459,2.273,0.682,3.428,0.682c2.461,0,4.872-1.014,6.606-2.901
	c8.545-9.298,15.345-19.978,20.212-31.742C477.432,94.187,451.231,30.99,396.29,8.253C369.674-2.76,340.365-2.751,313.758,8.281
	c-11.635,4.824-22.145,11.504-31.21,19.719c-18.589-6.38-38.591-5.798-56.955,1.817c-18.36,7.612-32.91,21.352-41.54,39.019
	c-12.219,0.608-24.372,3.324-36.008,8.148c-26.607,11.031-47.327,31.764-58.341,58.379c-4.647,11.228-7.353,23.02-8.045,35.048
	c-0.285,4.945,3.495,9.186,8.44,9.47c4.926,0.276,9.186-3.493,9.47-8.44c0.576-10.02,2.834-19.85,6.71-29.219
	c9.182-22.187,26.454-39.47,48.636-48.667c22.184-9.196,46.617-9.203,68.803-0.022c2.445,1.011,4.832,2.122,7.158,3.33
	c-34.632,7.036-64.493,30.914-78.384,64.482c-13.892,33.568-9.639,71.564,9.894,101.016c-2.501-0.789-4.974-1.691-7.417-2.702
	c-27.411-11.344-47.449-35.468-53.6-64.533c-1.025-4.846-5.788-7.945-10.633-6.917c-4.847,1.026-7.945,5.786-6.919,10.633
	c7.378,34.856,31.413,63.787,64.292,77.393c11.762,4.869,24.125,7.604,36.743,8.129c0.124,0.005,0.25,0.007,0.374,0.007
	c3.614,0,6.895-2.177,8.286-5.54c1.44-3.479,0.554-7.487-2.217-10.035c-27.672-25.428-36.603-65.853-22.227-100.592
	c7.764-18.761,21.514-33.879,38.428-43.582c-2.093,2.462-4.078,5.028-5.918,7.717c-12.618,18.452-18.143,40.856-15.557,63.084
	c2.587,22.229,13.108,42.766,29.625,57.828c16.349,14.909,37.474,23.509,59.482,24.218c0.097,0.002,0.194,0.005,0.289,0.005
	c3.388,0,6.499-1.912,8.021-4.957c1.567-3.131,1.167-6.887-1.021-9.62c-0.951-1.186-1.874-2.392-2.785-3.606
	c2.16,0.092,4.45,0.151,6.892,0.151c10.121,0,22.557-0.935,36.34-3.931c1.369,19.371,1.409,38.817,0.126,58.2
	c-3.114,1.068-6.315,1.982-9.584,2.692c-4.841,1.052-7.912,5.83-6.86,10.67c0.914,4.199,4.628,7.067,8.757,7.067
	c0.63,0,1.271-0.067,1.914-0.206c1.363-0.297,2.716-0.63,4.063-0.979c-1.881,16.808-4.751,33.532-8.644,50.073
	c-27.354,2.986-51.176-5.095-62.037-9.681c3.406-13.627,6.005-27.436,7.796-41.394c7.799,2.063,19.159,4.299,32.305,4.518
	c0.051,0,0.102,0.001,0.153,0.001c4.884,0,8.883-3.918,8.965-8.82c0.081-4.954-3.867-9.035-8.819-9.118
	c-13.082-0.218-24.222-2.79-30.742-4.692c0.553-7.13,0.922-14.289,1.056-21.484c0.092-4.954-3.849-9.044-8.801-9.135
	c-4.917-0.114-9.044,3.847-9.136,8.801c-0.8,43.036-9.525,84.952-25.895,124.685c-43.388,4.979-85.33,20.025-121.922,44.186
	c-4.133,2.729-5.272,8.294-2.543,12.427c2.729,4.136,8.294,5.274,12.428,2.543c49.505-32.686,109.488-47.557,168.904-41.868
	c60.203,5.763,116.952,32.531,159.794,75.373c1.752,1.751,4.048,2.628,6.343,2.628c2.295,0,4.591-0.875,6.343-2.628
	c3.503-3.503,3.503-9.182,0-12.684c-35.245-35.245-79.302-60.295-127.07-72.776c27.14-82.59,29.265-171.345,6.55-254.8
	c13.16,19.628,21.429,42.087,24.043,65.622c0.386,3.48,2.763,6.416,6.085,7.521c0.928,0.309,1.882,0.458,2.828,0.458
	c2.44,0,4.823-0.997,6.549-2.839c15.051-16.074,23.893-37.098,24.896-59.199c1.015-22.331-6.081-44.287-19.982-61.825
	c-13.901-17.539-33.658-29.46-55.63-33.57c-3.203-0.599-6.421-1.007-9.642-1.267c18.818-5.11,39.232-4.157,57.993,3.606
	c8.776,3.632,16.853,8.568,24.005,14.671c3.771,3.216,9.43,2.766,12.645-1.001c3.215-3.768,2.767-9.43-1.001-12.646
	c-8.587-7.325-18.273-13.248-28.79-17.6c-33.569-13.892-71.566-9.637-101.016,9.895c0.789-2.5,1.69-4.975,2.702-7.418
	c9.182-22.187,26.454-39.47,48.636-48.667c22.18-9.196,46.616-9.205,68.802-0.023c45.801,18.955,67.644,71.637,48.689,117.439
	c-1.013,2.447-2.125,4.836-3.334,7.166c-3.011-14.87-9.135-29.1-18.028-41.542c-2.88-4.03-8.484-4.961-12.513-2.081
	c-4.03,2.881-4.962,8.483-2.081,12.513c11.632,16.272,17.58,36.198,16.754,56.104C418.761,178.189,420.971,181.649,424.449,183.089z
	 M230.578,76.957c-8.6-3.559-17.484-5.949-26.464-7.206c6.829-10.383,16.588-18.488,28.349-23.364
	c11.765-4.877,24.393-6.055,36.558-3.548c-5.457,7.244-10.045,15.218-13.604,23.82c-2.73,6.596-4.765,13.386-6.139,20.299
	C243.417,83.045,237.175,79.687,230.578,76.957z M227.733,239.997c-13.322-12.147-21.806-28.712-23.893-46.644
	s2.368-36.003,12.544-50.884c6.24-9.124,14.362-16.688,23.708-22.224c-7.185,22.359-9.531,46.087-6.786,69.681
	c2.746,23.594,10.475,46.149,22.602,66.262C245.543,252.943,235.902,247.445,227.733,239.997z M267.453,240.149
	c-8.611-16.162-14.18-33.869-16.324-52.298c-2.882-24.77,0.544-49.69,9.881-72.596c13.065,5.488,25.227,12.813,36.144,21.753
	c4.09,10.963,7.729,22.057,10.883,33.257c-11.951,3.081-23.436,4.914-34.224,5.416c-4.949,0.23-8.773,4.429-8.544,9.376
	c0.225,4.807,4.192,8.552,8.953,8.552c0.14,0,0.282-0.002,0.423-0.01c12.018-0.56,24.729-2.58,37.879-5.97
	c3.893,16.467,6.777,33.119,8.678,49.865C296.097,243.306,275.6,241.364,267.453,240.149z M276.054,416.141
	c-12.892-1.234-25.807-1.546-38.652-0.993c3.082-8.038,5.869-16.157,8.36-24.35c11.278,4.572,31.06,10.85,54.669,10.85
	c2.435,0,4.925-0.093,7.436-0.236c-1.756,6.202-3.66,12.372-5.703,18.507C293.549,418.255,284.837,416.982,276.054,416.141z
	 M356.667,129.991c11.214,14.148,16.939,31.858,16.12,49.867c-0.501,11.042-3.424,21.75-8.457,31.377
	c-5.662-22.794-16.16-44.202-30.913-62.816c-14.756-18.615-33.202-33.723-54.099-44.439c10.524-2.702,21.613-3.102,32.48-1.07
	C329.519,106.226,345.454,115.843,356.667,129.991z"/>
<path d="M71.978,478.311c-6.994,5.756-13.804,11.939-20.241,18.377c-3.503,3.503-3.503,9.182,0,12.684
	c1.752,1.751,4.048,2.628,6.343,2.628s4.591-0.875,6.343-2.628c6.029-6.03,12.407-11.821,18.957-17.211
	c3.825-3.148,4.372-8.801,1.225-12.626C81.456,475.711,75.801,475.163,71.978,478.311z"/>
<path d="M163.402,490.981c-1.454-3.453-4.96-5.718-8.721-5.525c-3.594,0.183-6.785,2.552-8.002,5.936
	c-2.772,7.707,5.903,14.935,12.974,10.758C163.443,499.91,165.129,495.064,163.402,490.981z"/>
<path d="M113.973,491.782c-2.9-7.042-13.149-7.285-16.389-0.405c-1.649,3.501-0.83,7.792,2.014,10.423
	c2.898,2.681,7.316,3.112,10.695,1.1C114.083,500.643,115.607,495.851,113.973,491.782z"/>
<path d="M136.889,473.436c-1.387-3.471-5.013-5.698-8.721-5.518c-3.745,0.182-7.05,2.772-8.14,6.352
	c-2.374,7.792,6.468,14.458,13.329,10.207C137.037,482.198,138.542,477.432,136.889,473.436z"/>
<path d="M347.578,476.63c-1.426-3.383-4.813-5.626-8.502-5.531c-3.578,0.091-6.834,2.368-8.137,5.701
	c-3.002,7.673,5.547,15.107,12.737,11.082C347.572,485.701,349.327,480.763,347.578,476.63z"/>
<path d="M382.991,487.215c-3.49,0.727-6.286,3.451-7.03,6.951c-0.817,3.846,1.09,7.906,4.555,9.749
	c3.27,1.738,7.377,1.267,10.161-1.18c2.999-2.637,3.869-7.088,2.12-10.664C391.04,488.473,386.925,486.422,382.991,487.215z"/>
</svg>